M48
; DRILL file {KiCad 5.1.9} date Thu Feb 25 17:17:08 2021
; FORMAT={-:-/ absolute / metric / decimal}
; #@! TF.CreationDate,2021-02-25T17:17:08+01:00
; #@! TF.GenerationSoftware,Kicad,Pcbnew,5.1.9
; #@! TF.FileFunction,Plated,1,2,PTH
FMAT,2
METRIC
T1C1.000
T2C1.500
T3C1.800
T4C3.200
%
G90
G05
T1
X2.54Y39.37
X2.54Y26.67
X2.54Y10.16
X5.08Y15.24
X8.78Y15.24
X10.16Y104.14
X13.335Y72.39
X15.24Y55.88
X15.24Y26.67
X15.35Y46.56
X15.35Y43.16
X19.05Y48.26
X19.05Y44.86
X19.05Y41.46
X19.685Y62.23
X20.24Y55.88
X20.24Y26.67
X27.94Y26.67
X27.94Y12.7
X33.02Y104.14
X35.56Y77.47
X36.83Y58.42
X40.64Y26.67
X41.91Y66.04
X45.64Y26.67
X46.99Y104.14
X48.26Y59.69
X48.37Y49.1
X48.37Y45.7
X52.07Y74.93
X52.07Y50.8
X52.07Y47.4
X52.07Y44.0
X53.26Y59.69
X54.61Y39.37
X54.61Y30.48
X54.61Y12.7
T2
X3.81Y96.52
X3.81Y86.36
X4.346Y77.318
X4.346Y67.31
X8.89Y96.52
X8.89Y86.36
X9.346Y77.318
X9.346Y67.31
X10.16Y35.56
X15.24Y15.24
X15.24Y5.08
X18.82Y97.44
X18.82Y85.44
X19.346Y77.318
X19.346Y67.31
X20.32Y15.24
X20.32Y5.08
X22.86Y35.56
X24.346Y77.318
X24.346Y67.31
X31.02Y97.44
X31.02Y85.44
X33.02Y91.44
X33.02Y70.625
X35.56Y35.56
X38.02Y70.625
X39.37Y97.79
X39.37Y85.09
X40.64Y15.24
X40.64Y5.08
X45.72Y15.24
X45.72Y5.08
X46.99Y82.55
X48.02Y70.625
X48.26Y35.56
X50.165Y96.52
X50.165Y91.44
X52.07Y82.55
X53.02Y70.625
T3
X2.54Y48.26
X10.16Y48.26
X35.56Y48.26
X43.18Y48.26
T4
X5.08Y104.14
X5.08Y5.08
X53.34Y104.14
X53.34Y5.08
T0
M30
