M48
; DRILL file {KiCad 5.1.9} date Fri Feb 26 12:49:08 2021
; FORMAT={-:-/ absolute / metric / decimal}
; #@! TF.CreationDate,2021-02-26T12:49:08+01:00
; #@! TF.GenerationSoftware,Kicad,Pcbnew,5.1.9
; #@! TF.FileFunction,Plated,1,2,PTH
FMAT,2
METRIC
T1C1.000
T2C1.500
T3C1.800
T4C3.200
%
G90
G05
T1
X2.54Y41.91
X2.54Y12.7
X5.08Y17.78
X5.715Y29.21
X8.78Y17.78
X11.43Y109.22
X13.335Y74.93
X15.24Y58.42
X15.24Y29.21
X15.35Y49.1
X15.35Y45.7
X19.05Y50.8
X19.05Y47.4
X19.05Y44.0
X19.685Y64.77
X20.24Y58.42
X20.24Y29.21
X27.94Y29.21
X27.94Y15.24
X33.02Y106.68
X35.56Y80.01
X36.83Y107.95
X36.83Y60.96
X39.37Y107.95
X40.64Y29.21
X41.91Y68.58
X44.45Y107.95
X44.45Y95.25
X45.64Y29.21
X47.625Y106.045
X48.26Y62.23
X48.37Y51.64
X48.37Y48.24
X52.07Y77.47
X52.07Y53.34
X52.07Y49.94
X52.07Y46.54
X53.26Y62.23
X54.61Y41.91
X54.61Y33.02
X54.61Y15.24
T2
X3.81Y101.6
X3.81Y88.9
X4.346Y79.858
X4.346Y69.85
X8.89Y101.6
X8.89Y88.9
X9.346Y79.858
X9.346Y69.85
X10.16Y38.1
X15.24Y17.145
X15.24Y5.08
X18.82Y99.98
X18.82Y87.98
X19.346Y79.858
X19.346Y69.85
X20.32Y17.145
X20.32Y5.08
X22.86Y38.1
X24.346Y79.858
X24.346Y69.85
X31.02Y99.98
X31.02Y87.98
X33.02Y93.98
X33.02Y73.165
X35.56Y38.1
X38.02Y73.165
X39.37Y100.33
X39.37Y87.63
X40.64Y17.145
X40.64Y5.08
X45.72Y17.145
X45.72Y5.08
X46.99Y85.09
X48.02Y73.165
X48.26Y38.1
X52.07Y85.09
X52.705Y100.33
X52.705Y95.25
X53.02Y73.165
T3
X2.54Y50.8
X10.16Y50.8
X35.56Y50.8
X43.18Y50.8
T4
X5.08Y109.22
X5.08Y5.08
X53.34Y109.22
X53.34Y5.08
T0
M30
