M48
; DRILL file {KiCad 5.1.9} date Wed Feb 24 17:28:05 2021
; FORMAT={-:-/ absolute / metric / decimal}
; #@! TF.CreationDate,2021-02-24T17:28:05+01:00
; #@! TF.GenerationSoftware,Kicad,Pcbnew,5.1.9
; #@! TF.FileFunction,Plated,1,2,PTH
FMAT,2
METRIC
T1C1.000
T2C1.500
T3C1.800
T4C2.000
T5C3.200
%
G90
G05
T1
X2.54Y74.93
X2.54Y58.42
X2.54Y39.37
X2.54Y26.67
X2.54Y10.16
X10.16Y104.14
X15.24Y26.67
X19.16Y49.1
X19.16Y45.7
X20.24Y26.67
X20.32Y60.96
X22.86Y50.8
X22.86Y47.4
X22.86Y44.0
X25.32Y60.96
X27.94Y39.37
X27.94Y26.67
X27.94Y12.7
X33.02Y104.14
X35.56Y77.47
X36.83Y58.42
X40.64Y26.67
X44.56Y49.1
X44.56Y45.7
X45.64Y26.67
X45.72Y60.96
X46.99Y104.14
X48.26Y50.8
X48.26Y47.4
X48.26Y44.0
X50.72Y60.96
X54.61Y39.37
X54.61Y30.48
X54.61Y12.7
X55.88Y58.42
T2
X3.81Y96.52
X3.81Y86.36
X8.89Y96.52
X8.89Y86.36
X10.16Y35.56
X15.24Y15.24
X15.24Y5.08
X18.82Y97.44
X18.82Y85.44
X20.32Y15.24
X20.32Y5.08
X22.86Y35.56
X31.02Y97.44
X31.02Y85.44
X33.02Y91.44
X35.56Y35.56
X39.37Y97.79
X39.37Y85.09
X40.64Y15.24
X40.64Y5.08
X45.72Y15.24
X45.72Y5.08
X46.99Y82.55
X48.26Y97.79
X48.26Y92.71
X48.26Y35.56
X52.07Y82.55
T3
X7.62Y48.26
X7.62Y18.1
X7.62Y12.7
X15.24Y48.26
X33.02Y48.26
X40.64Y48.26
T5
X5.08Y104.14
X5.08Y5.08
X53.34Y104.14
X53.34Y5.08
T4
G00X10.7Y78.74
M15
G01X14.7Y78.74
M16
G05
G00X10.7Y71.12
M15
G01X14.7Y71.12
M16
G05
G00X20.0Y78.74
M15
G01X24.0Y78.74
M16
G05
G00X20.0Y71.12
M15
G01X24.0Y71.12
M16
G05
G00X42.23Y71.12
M15
G01X38.23Y71.12
M16
G05
G00X51.53Y71.12
M15
G01X47.53Y71.12
M16
G05
T0
M30
